<?xml version="1.0" encoding="UTF-8" ?>
<!DOCTYPE svg PUBLIC "-//W3C//DTD SVG 1.1//EN" "http://www.w3.org/Graphics/SVG/1.1/DTD/svg11.dtd">
<svg width="584pt" height="521pt" viewBox="0 0 584 521" version="1.1" xmlns="http://www.w3.org/2000/svg">
<g id="#ffffffff">
</g>
<g id="#4a80afff">
<path fill="#4a80af" opacity="1.00" d=" M 272.11 16.03 C 277.78 12.55 284.24 9.92 291.02 10.42 C 298.84 10.03 305.78 14.16 312.32 17.89 C 342.51 34.20 372.62 50.65 402.88 66.84 C 402.20 66.99 400.85 67.29 400.18 67.43 C 405.46 82.91 412.50 98.00 414.39 114.42 C 416.44 125.00 415.14 135.83 413.05 146.28 C 411.16 154.77 405.84 161.90 400.69 168.70 C 393.86 177.59 383.72 183.00 373.78 187.69 C 365.37 191.76 356.19 194.05 348.06 198.72 C 343.38 195.87 338.62 193.14 334.04 190.15 C 321.70 182.06 308.79 174.85 296.76 166.29 C 294.65 164.90 292.55 163.39 290.09 162.68 C 285.01 163.25 283.77 171.26 288.34 173.56 C 302.53 183.17 317.61 191.44 331.73 201.19 C 318.31 202.79 304.86 204.12 291.40 205.27 C 281.62 206.11 271.80 205.54 262.00 205.74 C 250.63 206.09 239.32 204.54 227.96 204.54 C 216.25 203.78 204.45 203.94 192.86 201.88 C 179.17 200.31 165.51 198.40 151.79 197.05 C 135.74 195.32 120.00 191.46 103.93 189.91 C 96.50 189.17 89.26 187.27 81.95 185.85 C 59.40 181.54 36.91 176.88 14.42 172.30 C 11.88 171.85 10.82 169.24 9.40 167.40 C 8.97 170.33 8.97 173.31 8.76 176.26 L 8.47 177.18 C 7.50 172.20 6.91 166.84 9.40 162.17 C 12.03 155.83 18.76 153.18 24.42 150.23 C 38.30 142.47 52.48 135.27 66.25 127.31 C 135.01 90.49 203.40 52.96 272.11 16.03 Z" />
<path fill="#4a80af" opacity="1.00" d=" M 471.01 267.49 C 471.35 267.31 472.04 266.94 472.39 266.76 C 471.48 269.41 471.29 272.21 471.34 274.99 C 471.50 307.02 471.18 339.05 471.52 371.08 C 471.38 373.48 471.01 375.89 470.34 378.21 C 469.31 363.82 470.22 349.40 470.03 335.00 C 470.15 321.71 469.77 308.41 470.20 295.12 C 471.11 285.93 470.18 276.68 471.01 267.49 Z" />
</g>
<g id="#3b6892ff">
<path fill="#3b6892" opacity="1.00" d=" M 400.18 67.43 C 400.85 67.29 402.20 66.99 402.88 66.84 C 456.21 96.00 509.79 124.72 563.18 153.78 C 567.94 156.32 572.37 160.99 572.55 166.61 C 571.66 171.27 570.80 175.98 571.12 180.75 C 565.43 185.94 558.15 188.76 551.50 192.45 C 544.15 197.00 536.17 200.39 528.65 204.63 C 509.53 215.27 490.27 225.65 470.97 235.94 C 464.43 239.28 458.39 243.51 451.91 246.94 C 446.74 249.29 441.61 251.73 436.71 254.60 C 413.53 240.47 390.84 225.56 367.74 211.29 C 361.11 207.20 354.70 202.78 348.06 198.72 C 356.19 194.05 365.37 191.76 373.78 187.69 C 383.72 183.00 393.86 177.59 400.69 168.70 C 405.84 161.90 411.16 154.77 413.05 146.28 C 415.14 135.83 416.44 125.00 414.39 114.42 C 412.50 98.00 405.46 82.91 400.18 67.43 Z" />
<path fill="#3b6892" opacity="1.00" d=" M 9.40 167.40 C 10.82 169.24 11.88 171.85 14.42 172.30 C 36.91 176.88 59.40 181.54 81.95 185.85 C 89.26 187.27 96.50 189.17 103.93 189.91 C 120.00 191.46 135.74 195.32 151.79 197.05 C 165.51 198.40 179.17 200.31 192.86 201.88 C 204.45 203.94 216.25 203.78 227.96 204.54 C 239.32 204.54 250.63 206.09 262.00 205.74 C 271.80 205.54 281.62 206.11 291.40 205.27 C 304.86 204.12 318.31 202.79 331.73 201.19 C 363.51 220.87 394.84 241.31 426.69 260.87 C 423.35 263.22 420.02 265.62 416.34 267.41 C 399.76 275.02 384.40 284.99 367.97 292.91 C 361.06 296.10 354.89 300.61 348.14 304.09 C 338.20 309.05 328.61 314.68 318.68 319.67 C 309.53 324.82 299.90 330.43 289.08 330.45 C 279.40 330.22 271.57 323.89 263.26 319.77 C 257.02 316.74 250.89 313.51 244.85 310.12 C 236.49 305.85 228.76 300.43 220.08 296.80 C 212.11 293.48 205.16 288.23 197.35 284.60 C 188.26 280.14 179.75 274.58 170.54 270.35 C 158.78 263.29 146.61 256.98 134.56 250.45 C 125.03 245.82 116.39 239.55 106.66 235.31 C 93.03 229.03 80.78 220.19 67.20 213.81 C 58.76 209.71 51.06 204.23 42.48 200.39 C 32.20 195.74 22.80 189.12 11.83 186.07 C 10.88 182.77 9.78 179.53 8.76 176.26 C 8.97 173.31 8.97 170.33 9.40 167.40 Z" />
<path fill="#3b6892" opacity="1.00" d=" M 105.79 272.35 C 106.80 270.90 107.85 269.49 108.92 268.08 C 115.92 273.25 123.21 278.03 130.89 282.12 C 139.00 286.43 146.45 291.84 154.27 296.65 C 165.50 303.73 176.34 311.41 187.67 318.34 C 196.57 324.54 206.05 329.81 215.07 335.84 C 223.78 341.40 232.08 347.58 240.83 353.09 C 257.72 363.43 274.23 374.38 290.93 385.02 C 295.91 388.23 302.33 388.77 307.85 386.66 C 319.33 382.27 329.01 374.47 339.76 368.68 C 343.82 366.44 347.80 364.08 351.74 361.65 C 360.50 356.20 370.01 352.08 378.83 346.74 C 391.05 339.57 403.71 333.17 415.64 325.52 C 419.13 323.37 423.00 321.96 426.85 320.62 C 426.86 328.89 426.84 337.16 426.87 345.43 C 423.38 347.66 419.71 349.81 417.15 353.14 C 413.17 358.52 411.09 365.94 413.79 372.34 C 415.70 378.47 421.13 382.38 426.06 386.02 C 420.88 390.87 415.93 396.73 415.13 404.07 C 414.28 413.09 414.47 422.24 415.72 431.23 C 367.84 454.02 313.32 459.83 260.96 454.96 C 231.63 452.08 202.55 445.81 175.03 435.18 C 158.39 428.34 141.65 420.85 127.67 409.31 C 118.51 401.82 111.87 391.14 109.83 379.43 C 107.59 365.40 109.36 351.12 107.72 337.04 C 107.25 328.03 107.81 318.98 106.81 310.00 C 106.41 301.67 106.74 293.31 106.19 284.99 C 105.81 280.79 105.38 276.56 105.79 272.35 M 108.54 293.57 C 107.73 301.15 107.73 308.81 108.54 316.40 C 109.80 308.85 109.83 301.10 108.54 293.57 Z" />
<path fill="#3b6892" opacity="1.00" d=" M 459.25 301.18 C 462.79 298.98 466.45 296.97 470.20 295.12 C 469.77 308.41 470.15 321.71 470.03 335.00 C 470.22 349.40 469.31 363.82 470.34 378.21 C 469.34 384.50 467.16 390.96 462.78 395.77 C 459.07 390.15 453.47 386.39 448.12 382.54 C 449.86 376.90 454.59 372.26 454.35 366.01 C 454.69 356.25 447.05 348.41 438.33 345.30 C 438.31 334.55 438.57 323.79 438.21 313.05 C 445.07 308.82 452.42 305.46 459.25 301.18 Z" />
</g>
<g id="#ef9e1aff">
<path fill="#ef9e1a" opacity="1.00" d=" M 288.34 173.56 C 283.77 171.26 285.01 163.25 290.09 162.68 C 292.55 163.39 294.65 164.90 296.76 166.29 C 308.79 174.85 321.70 182.06 334.04 190.15 C 338.62 193.14 343.38 195.87 348.06 198.72 C 354.70 202.78 361.11 207.20 367.74 211.29 C 390.84 225.56 413.53 240.47 436.71 254.60 C 438.45 265.80 437.18 277.21 437.64 288.50 C 437.60 296.68 437.24 304.90 438.21 313.05 C 438.57 323.79 438.31 334.55 438.33 345.30 C 447.05 348.41 454.69 356.25 454.35 366.01 C 454.59 372.26 449.86 376.90 448.12 382.54 C 453.47 386.39 459.07 390.15 462.78 395.77 C 462.77 397.22 462.85 398.68 463.27 400.09 C 470.27 420.61 480.81 439.86 494.12 456.97 C 497.91 461.81 501.46 466.86 505.69 471.35 C 507.65 473.53 510.23 475.65 510.12 478.88 C 508.86 479.58 507.50 480.04 506.14 480.44 C 488.15 484.92 470.53 491.32 454.36 500.47 C 447.95 504.05 442.08 508.48 436.01 512.59 C 427.73 493.12 422.43 472.48 418.55 451.72 C 417.60 444.88 417.05 438.01 415.72 431.23 C 414.47 422.24 414.28 413.09 415.13 404.07 C 415.93 396.73 420.88 390.87 426.06 386.02 C 421.13 382.38 415.70 378.47 413.79 372.34 C 411.09 365.94 413.17 358.52 417.15 353.14 C 419.71 349.81 423.38 347.66 426.87 345.43 C 426.84 337.16 426.86 328.89 426.85 320.62 C 426.76 311.74 427.18 302.88 427.48 294.02 C 427.39 283.14 427.62 272.27 427.36 261.40 L 426.69 260.87 C 394.84 241.31 363.51 220.87 331.73 201.19 C 317.61 191.44 302.53 183.17 288.34 173.56 Z" />
</g>
<g id="#3e3e5dff">
<path fill="#3e3e5d" opacity="1.00" d=" M 571.12 180.75 C 570.80 175.98 571.66 171.27 572.55 166.61 C 572.80 179.86 573.03 193.15 572.47 206.39 C 570.59 197.95 571.49 189.30 571.12 180.75 Z" />
<path fill="#3e3e5d" opacity="1.00" d=" M 459.06 276.12 C 463.41 274.54 467.16 271.77 470.30 268.42 C 469.43 277.30 469.74 286.23 470.20 295.12 C 466.45 296.97 462.79 298.98 459.25 301.18 C 452.42 305.46 445.07 308.82 438.21 313.05 C 437.24 304.90 437.60 296.68 437.64 288.50 C 445.38 285.41 451.24 279.05 459.06 276.12 Z" />
<path fill="#3e3e5d" opacity="1.00" d=" M 130.35 280.05 C 134.82 281.74 139.24 283.58 143.58 285.60 C 150.66 288.83 156.62 293.99 163.54 297.53 C 179.26 305.69 194.54 314.69 210.32 322.73 C 217.93 326.75 225.21 331.34 232.86 335.29 C 240.61 339.57 249.05 342.57 256.31 347.71 C 263.43 352.86 271.63 356.14 279.68 359.50 C 284.56 361.46 289.97 362.84 295.21 361.57 C 306.39 358.98 315.82 352.13 325.82 346.85 C 334.58 342.37 342.93 337.13 351.91 333.08 C 357.30 330.64 362.53 327.83 367.40 324.44 C 372.46 320.91 378.09 318.35 383.63 315.67 C 388.93 313.14 393.78 309.81 398.97 307.09 C 408.28 302.35 417.16 296.43 427.48 294.02 C 427.18 302.88 426.76 311.74 426.85 320.62 C 423.00 321.96 419.13 323.37 415.64 325.52 C 403.71 333.17 391.05 339.57 378.83 346.74 C 370.01 352.08 360.50 356.20 351.74 361.65 C 347.80 364.08 343.82 366.44 339.76 368.68 C 329.01 374.47 319.33 382.27 307.85 386.66 C 302.33 388.77 295.91 388.23 290.93 385.02 C 274.23 374.38 257.72 363.43 240.83 353.09 C 232.08 347.58 223.78 341.40 215.07 335.84 C 206.05 329.81 196.57 324.54 187.67 318.34 C 176.34 311.41 165.50 303.73 154.27 296.65 C 146.45 291.84 139.00 286.43 130.89 282.12 C 130.75 281.60 130.48 280.57 130.35 280.05 Z" />
</g>
<g id="#2e577eff">
<path fill="#2e577e" opacity="1.00" d=" M 8.47 177.18 L 8.76 176.26 C 9.78 179.53 10.88 182.77 11.83 186.07 C 22.80 189.12 32.20 195.74 42.48 200.39 C 51.06 204.23 58.76 209.71 67.20 213.81 C 80.78 220.19 93.03 229.03 106.66 235.31 C 116.39 239.55 125.03 245.82 134.56 250.45 C 146.61 256.98 158.78 263.29 170.54 270.35 C 179.75 274.58 188.26 280.14 197.35 284.60 C 205.16 288.23 212.11 293.48 220.08 296.80 C 228.76 300.43 236.49 305.85 244.85 310.12 C 250.89 313.51 257.02 316.74 263.26 319.77 C 271.57 323.89 279.40 330.22 289.08 330.45 C 299.90 330.43 309.53 324.82 318.68 319.67 C 328.61 314.68 338.20 309.05 348.14 304.09 C 354.89 300.61 361.06 296.10 367.97 292.91 C 384.40 284.99 399.76 275.02 416.34 267.41 C 420.02 265.62 423.35 263.22 426.69 260.87 L 427.36 261.40 C 427.62 272.27 427.39 283.14 427.48 294.02 C 417.16 296.43 408.28 302.35 398.97 307.09 C 393.78 309.81 388.93 313.14 383.63 315.67 C 378.09 318.35 372.46 320.91 367.40 324.44 C 362.53 327.83 357.30 330.64 351.91 333.08 C 342.93 337.13 334.58 342.37 325.82 346.85 C 315.82 352.13 306.39 358.98 295.21 361.57 C 289.97 362.84 284.56 361.46 279.68 359.50 C 271.63 356.14 263.43 352.86 256.31 347.71 C 249.05 342.57 240.61 339.57 232.86 335.29 C 225.21 331.34 217.93 326.75 210.32 322.73 C 194.54 314.69 179.26 305.69 163.54 297.53 C 156.62 293.99 150.66 288.83 143.58 285.60 C 139.24 283.58 134.82 281.74 130.35 280.05 C 130.48 280.57 130.75 281.60 130.89 282.12 C 123.21 278.03 115.92 273.25 108.92 268.08 C 107.85 269.49 106.80 270.90 105.79 272.35 C 105.71 269.99 105.58 267.63 105.49 265.27 C 76.36 249.89 47.49 234.00 18.52 218.31 C 12.66 215.44 8.12 209.71 7.72 203.06 C 7.44 196.71 7.75 190.35 7.58 183.99 C 7.43 181.68 7.87 179.40 8.47 177.18 Z" />
<path fill="#2e577e" opacity="1.00" d=" M 551.50 192.45 C 558.15 188.76 565.43 185.94 571.12 180.75 C 571.49 189.30 570.59 197.95 572.47 206.39 C 571.62 211.24 567.69 215.19 563.56 217.66 C 545.65 227.45 527.67 237.10 509.74 246.84 C 497.32 253.54 485.06 260.54 472.39 266.76 C 472.04 266.94 471.35 267.31 471.01 267.49 C 470.18 276.68 471.11 285.93 470.20 295.12 C 469.74 286.23 469.43 277.30 470.30 268.42 C 467.16 271.77 463.41 274.54 459.06 276.12 C 451.24 279.05 445.38 285.41 437.64 288.50 C 437.18 277.21 438.45 265.80 436.71 254.60 C 441.61 251.73 446.74 249.29 451.91 246.94 C 458.39 243.51 464.43 239.28 470.97 235.94 C 490.27 225.65 509.53 215.27 528.65 204.63 C 536.17 200.39 544.15 197.00 551.50 192.45 Z" />
<path fill="#2e577e" opacity="1.00" d=" M 108.54 293.57 C 109.83 301.10 109.80 308.85 108.54 316.40 C 107.73 308.81 107.73 301.15 108.54 293.57 Z" />
</g>
</svg>
